<?xml version="1.0" standalone="no"?>
<!DOCTYPE svg PUBLIC "-//W3C//DTD SVG 20010904//EN"
 "http://www.w3.org/TR/2001/REC-SVG-20010904/DTD/svg10.dtd">
<svg version="1.0" xmlns="http://www.w3.org/2000/svg"
 width="1512.000000pt" height="1512.000000pt" viewBox="0 0 1512.000000 1512.000000"
 preserveAspectRatio="xMidYMid meet">
<metadata>
Created by potrace 1.11, written by Peter Selinger 2001-2013
</metadata>
<g transform="translate(0.000000,1512.000000) scale(0.100000,-0.100000)"
fill="#000000" stroke="none">
<path d="M6565 15109 c-772 -65 -1425 -391 -1915 -954 -397 -457 -713 -1044
-1056 -1963 -145 -388 -399 -1133 -433 -1267 -129 -518 -212 -1189 -263 -2135
-17 -309 -17 -1477 0 -1835 59 -1256 151 -2241 328 -3490 135 -962 380 -2377
460 -2660 73 -257 239 -507 432 -648 54 -39 71 -46 129 -53 81 -8 208 8 271
36 196 87 312 315 282 555 -5 42 -18 106 -29 143 -44 149 -231 1392 -345 2292
-150 1179 -301 2839 -346 3790 -13 278 -13 1116 0 1441 53 1323 203 2445 461
3449 103 402 211 699 379 1047 263 545 573 938 915 1163 97 63 324 174 460
225 301 112 489 127 1070 86 351 -25 520 -44 685 -77 713 -142 1384 -474 1960
-969 628 -540 1062 -1030 1390 -1570 206 -339 389 -763 435 -1009 20 -108 23
-244 6 -313 -17 -68 -73 -132 -143 -164 -49 -22 -64 -24 -223 -23 -200 0 -255
12 -436 94 -303 137 -788 457 -1324 874 -397 309 -953 774 -1307 1094 l-27 25
-43 -26 c-74 -44 -205 -155 -253 -215 -25 -31 -62 -90 -82 -130 -34 -68 -36
-79 -37 -170 -1 -114 15 -169 76 -264 118 -182 353 -369 1128 -898 1149 -784
1487 -1037 1810 -1360 290 -289 464 -530 601 -833 142 -314 186 -545 130 -674
-27 -62 -51 -85 -116 -115 -44 -20 -65 -23 -170 -23 -102 1 -139 6 -247 33
-476 122 -965 404 -1432 827 -157 143 -350 336 -621 625 -449 477 -609 618
-785 691 -145 60 -211 50 -310 -50 -73 -73 -122 -159 -164 -284 -125 -377 -37
-674 304 -1017 231 -233 559 -472 1285 -940 233 -150 561 -370 710 -475 771
-548 1214 -1015 1480 -1560 87 -177 118 -282 119 -395 1 -81 -3 -102 -22 -143
-59 -119 -233 -167 -488 -133 -394 52 -751 213 -1183 535 -257 192 -566 477
-982 906 -505 522 -686 683 -866 774 -119 60 -201 36 -261 -76 -63 -118 -96
-296 -96 -518 0 -136 3 -158 27 -230 50 -150 146 -286 311 -442 117 -110 249
-215 631 -503 695 -523 1061 -835 1485 -1266 485 -493 818 -941 1058 -1419
165 -331 312 -753 363 -1045 25 -145 28 -346 5 -443 -59 -251 -219 -358 -536
-359 -635 -1 -1482 392 -2440 1135 -85 66 -191 151 -236 188 l-81 68 -7 148
c-47 1018 -252 2186 -536 3061 -109 334 -189 502 -240 502 -28 0 -40 -30 -51
-132 -13 -115 -2 -328 51 -1019 47 -616 66 -915 80 -1269 12 -323 15 -664 5
-668 -8 -5 -172 148 -546 510 -236 228 -293 278 -327 287 -126 34 -246 -127
-377 -512 l-44 -127 98 -124 c308 -386 739 -841 1069 -1130 l112 -99 0 -66 c0
-36 -7 -184 -16 -328 l-16 -263 47 -56 c59 -69 167 -157 226 -183 52 -24 135
-27 182 -7 18 7 50 33 73 57 57 63 85 126 150 336 2 8 46 -15 117 -62 454
-295 951 -530 1429 -675 654 -198 1353 -253 1743 -139 203 60 327 162 414 340
78 160 111 320 111 540 0 807 -537 2059 -1268 2959 -47 58 -165 184 -261 280
-140 140 -219 208 -386 335 -258 195 -408 315 -401 322 9 10 329 -172 551
-312 461 -293 684 -398 929 -440 113 -19 189 -19 306 1 179 31 269 77 345 177
82 108 117 244 117 452 1 281 -79 610 -227 938 -193 426 -356 609 -1113 1244
-106 90 -191 163 -189 163 2 0 46 -20 98 -44 199 -93 383 -132 579 -123 278
13 501 128 634 327 143 212 217 565 186 889 -33 354 -191 683 -476 991 -258
279 -542 487 -932 684 -179 91 -232 127 -258 179 l-16 30 29 -7 c15 -4 107
-40 203 -81 350 -147 563 -213 775 -241 467 -62 719 160 800 705 23 153 30
360 16 466 -57 431 -316 963 -762 1562 -113 152 -412 526 -555 693 -141 166
-548 568 -699 691 -329 269 -657 476 -1083 685 -917 449 -1818 657 -2577 593z"/>
<path d="M6920 13451 c-238 -78 -430 -432 -390 -718 22 -158 131 -323 255
-384 119 -58 234 -41 360 53 219 165 322 459 245 698 -44 136 -153 270 -265
328 -53 27 -158 39 -205 23z"/>
</g>
</svg>
